<svg width="21" height="11" viewBox="0 0 21 11" fill="none" xmlns="http://www.w3.org/2000/svg">
<path d="M1.687 0.273146C1.59153 0.182927 1.47923 0.112398 1.3565 0.0655822C1.23377 0.0187663 1.10302 -0.00341802 0.97172 0.00029655C0.840418 0.00401112 0.711133 0.0335512 0.591248 0.0872297C0.471362 0.140908 0.363223 0.217674 0.273005 0.313146C0.182786 0.408617 0.112256 0.520924 0.0654406 0.643652C0.0186251 0.76638 -0.0035589 0.897128 0.000155447 1.02843C0.0038698 1.15973 0.0334096 1.28902 0.0870884 1.4089C0.140767 1.52879 0.217534 1.63693 0.313005 1.72715L9.313 10.2271C9.49867 10.4027 9.74449 10.5005 10 10.5005C10.2555 10.5005 10.5013 10.4027 10.687 10.2271L19.688 1.72715C19.7856 1.63752 19.8643 1.52941 19.9198 1.40908C19.9752 1.28875 20.0062 1.15861 20.0109 1.02622C20.0156 0.893825 19.9939 0.761815 19.9472 0.637858C19.9004 0.513902 19.8295 0.400468 19.7386 0.304148C19.6476 0.207828 19.5384 0.130539 19.4173 0.0767728C19.2963 0.0230065 19.1657 -0.00616539 19.0333 -0.00905025C18.9008 -0.0119351 18.7691 0.0115262 18.6458 0.05997C18.5225 0.108414 18.4101 0.180875 18.315 0.273145L10 8.12515L1.687 0.273146Z" fill="white"/>
</svg>
