<svg width="26" height="26" viewBox="0 0 26 26" fill="none" xmlns="http://www.w3.org/2000/svg">
<g clip-path="url(#clip0_158_607)">
<path d="M25.5934 0.159598C25.9126 0.391741 26.0432 0.701265 25.9851 1.08817L22.2709 23.3739C22.2225 23.6544 22.0677 23.872 21.8066 24.0268C21.6712 24.1042 21.5212 24.1429 21.3568 24.1429C21.2504 24.1429 21.1343 24.1187 21.0086 24.0703L14.436 21.3862L10.9249 25.6663C10.7508 25.8888 10.5138 26 10.2139 26C10.0882 26 9.9818 25.9807 9.89475 25.942C9.71097 25.8743 9.56346 25.7606 9.45223 25.601C9.34099 25.4414 9.28537 25.2649 9.28537 25.0714V20.0078L21.8211 4.64286L6.31104 18.0636L0.580016 15.7132C0.222129 15.5778 0.0286768 15.3118 -0.000341022 14.9152C-0.0196863 14.5283 0.135076 14.2429 0.463945 14.0592L24.6068 0.13058C24.7519 0.0435268 24.9067 0 25.0711 0C25.2645 0 25.4386 0.0531994 25.5934 0.159598Z" fill="white"/>
</g>
<defs>
<clipPath id="clip0_158_607">
<rect width="26" height="26" fill="white"/>
</clipPath>
</defs>
</svg>
