<svg width="29" height="20" viewBox="0 0 29 20" fill="none" xmlns="http://www.w3.org/2000/svg">
<g clip-path="url(#clip0_166_785)">
<path d="M11.2864 13.6826L18.9664 9.71427L11.2864 5.69927V13.6826ZM14.223 0.000100912C16.0008 0.000100912 17.7178 0.0239898 19.3739 0.0717676C21.03 0.119545 22.2442 0.169823 23.0164 0.222601L24.1747 0.289268C24.1853 0.289268 24.2742 0.297323 24.4414 0.313434C24.5805 0.324268 24.7055 0.340934 24.8289 0.364268L24.8072 0.360934C24.8817 0.377045 25.0061 0.400934 25.1805 0.432601C25.3514 0.461768 25.5039 0.505934 25.648 0.564268L25.633 0.559268C25.7603 0.612045 25.9086 0.680934 26.078 0.765934C26.2655 0.860934 26.4272 0.964268 26.5772 1.0801L26.5705 1.0751C26.7397 1.20677 26.8897 1.34427 27.028 1.49343L27.0305 1.49593C27.1155 1.5851 27.1964 1.68093 27.2705 1.78093L27.2764 1.78927C27.4447 2.05427 27.5997 2.36093 27.7239 2.68177L27.7364 2.71843C27.9364 3.18427 28.0839 3.72427 28.1539 4.28927L28.1572 4.31843C28.2417 4.99566 28.3083 5.71788 28.3572 6.4851C28.4061 7.25232 28.4353 7.85232 28.4447 8.2851V11.0784L28.4455 11.2976C28.4455 12.8418 28.3414 14.3626 28.1397 15.8518L28.1589 15.6784C28.0928 16.2349 27.9532 16.7803 27.7439 17.3001L27.7589 17.2576C27.6332 17.6094 27.4593 17.942 27.2422 18.2459L27.2505 18.2334L27.0289 18.5001C26.8898 18.6502 26.7387 18.7887 26.5772 18.9143L26.5689 18.9209C26.4213 19.0358 26.2618 19.1344 26.093 19.2151L26.0772 19.2218C25.9078 19.3012 25.7594 19.3679 25.6322 19.4218C25.4907 19.4789 25.3435 19.5208 25.193 19.5468L25.1797 19.5484C25.0053 19.5801 24.8783 19.604 24.7989 19.6201C24.7194 19.6362 24.5978 19.652 24.4339 19.6676C24.27 19.6832 24.1828 19.6912 24.1722 19.6918C21.5194 19.8984 18.2036 20.0018 14.2247 20.0018C12.0342 19.9807 10.1319 19.9462 8.51805 19.8984C6.90416 19.8507 5.84332 19.8109 5.33555 19.7793L4.55721 19.7126L3.98555 19.6459C3.67616 19.6087 3.36944 19.5519 3.06721 19.4759L3.11888 19.4868C2.83012 19.3977 2.5503 19.2819 2.28305 19.1409L2.30971 19.1534C1.97559 18.9905 1.67244 18.7705 1.41388 18.5034L1.41305 18.5026C1.32728 18.4126 1.24713 18.3174 1.17305 18.2176L1.16721 18.2093C0.989548 17.9269 0.83968 17.628 0.719714 17.3168L0.707214 17.2801C0.495641 16.7785 0.355118 16.2498 0.289714 15.7093L0.28638 15.6801C0.201936 15.0029 0.135269 14.2807 0.0863802 13.5134C0.0374913 12.7462 0.00832465 12.1462 -0.00111979 11.7134V8.9201L-0.00195312 8.70094C-0.00195312 7.15677 0.102214 5.63593 0.30388 4.14677L0.284714 4.3201C0.350803 3.76359 0.490351 3.21828 0.699714 2.69843L0.684714 2.74093C0.819714 2.36843 0.99138 2.04593 1.20138 1.7526L1.19305 1.7651L1.41471 1.49843C1.55555 1.34677 1.70555 1.20927 1.86638 1.08427L1.87471 1.0776C2.01805 0.965934 2.17888 0.863434 2.34971 0.775934L2.36721 0.767601C2.53666 0.683156 2.68499 0.614268 2.81221 0.560934C2.95375 0.503797 3.10097 0.461894 3.25138 0.435934L3.26471 0.434268C3.43916 0.402601 3.5636 0.378712 3.63805 0.362601C3.73888 0.342601 3.86388 0.325934 3.99138 0.315934L4.00388 0.315101C4.17332 0.29899 4.26221 0.290934 4.27055 0.290934C6.92777 0.0964898 10.2461 -0.000732422 14.2255 -0.000732422L14.223 0.000100912Z" fill="white"/>
</g>
<defs>
<clipPath id="clip0_166_785">
<rect width="28.3333" height="20" fill="white"/>
</clipPath>
</defs>
</svg>
